<?xml version="1.0" encoding="utf-8"?>
<!-- Generator: Adobe Illustrator 28.0.0, SVG Export Plug-In . SVG Version: 6.00 Build 0)  -->
<svg version="1.1" xmlns="http://www.w3.org/2000/svg" xmlns:xlink="http://www.w3.org/1999/xlink" x="0px" y="0px"
	 viewBox="0 0 2352 386" style="enable-background:new 0 0 2352 386;" xml:space="preserve">
<g id="Livello_1">
</g>
<g id="Livello_2">
	<g>
		<g>
			<g>
				<path d="M1550,296.3h46.8v10.2h-35.5v18.3h33v10.2h-33v27.4H1550V296.3z"/>
				<path d="M1615.1,360.4c-3.8-2.3-6.8-5.5-8.8-9.6c-2.1-4.1-3.1-8.7-3.1-13.9c0-5.4,1.1-10,3.3-13.9c2.2-3.9,5.3-6.9,9.2-9
					c3.9-2,8.3-3.1,13.2-3.1c5.2,0,9.8,1.1,13.7,3.4c3.9,2.3,6.8,5.4,8.9,9.3s3.1,8.4,3.1,13.3c0,5.6-1.1,10.4-3.3,14.5
					c-2.2,4-5.2,7.1-9.1,9.2c-3.9,2.1-8.3,3.2-13.3,3.2C1623.5,363.8,1618.9,362.7,1615.1,360.4z M1636.5,352.2
					c2.2-1.5,3.8-3.5,5-6.1c1.1-2.6,1.7-5.6,1.7-9c0-5-1.3-9-3.9-12c-2.6-3-6.1-4.5-10.4-4.5c-2.9,0-5.4,0.7-7.6,2
					c-2.2,1.4-3.8,3.3-5,5.8c-1.2,2.5-1.7,5.4-1.7,8.7c0,3.7,0.6,6.8,1.8,9.4c1.2,2.6,2.9,4.6,5.1,6s4.6,2.1,7.4,2.1
					C1631.8,354.4,1634.3,353.6,1636.5,352.2z"/>
				<path d="M1663.2,312.4h8.9l1.4,9.9c1.6-3.5,3.9-6.1,6.8-7.8c2.9-1.8,6.4-2.6,10.6-2.6h1.9v11h-1.9c-5.2,0-9.3,1.3-12.2,4
					c-2.9,2.6-4.4,6.3-4.4,11v24.8h-11.2V312.4z"/>
				<path d="M1710.1,358.6c-2.9-2.6-4.3-6.4-4.3-11.4v-25.3h-8.8v-9.5h8.8v-17.1h11.2v17.1h12.9v9.5h-12.9v24.6
					c0,2.1,0.5,3.8,1.6,4.9s2.6,1.7,4.7,1.7h5.6v9.5h-6.3C1717.1,362.5,1712.9,361.2,1710.1,358.6z"/>
				<path d="M1738.5,303.6c-1.4-1.4-2.1-3.1-2.1-5.1s0.7-3.7,2.1-5.1c1.4-1.4,3.1-2.1,5.1-2.1s3.7,0.7,5.1,2.1
					c1.4,1.4,2.1,3.1,2.1,5.2s-0.7,3.7-2,5.1c-1.4,1.4-3.1,2.1-5.2,2.1C1741.6,305.7,1739.9,305,1738.5,303.6z M1738,312.4h11.2
					v50.1H1738V312.4z"/>
				<path d="M1769,360.4c-3.5-2.3-6.3-5.4-8.3-9.5s-3-8.6-3-13.8c0-5.1,1-9.7,2.9-13.7c2-4,4.7-7.1,8.1-9.3
					c3.5-2.2,7.4-3.3,11.8-3.3c3.5,0,6.6,0.7,9.5,2c2.8,1.3,5.1,3.2,6.9,5.6v-26.9h11.3v70.9h-9l-1-8.8c-1.5,3.2-3.8,5.6-6.8,7.4
					c-3,1.8-6.5,2.7-10.5,2.7C1776.6,363.8,1772.6,362.7,1769,360.4z M1790.3,352.3c2.1-1.4,3.8-3.5,4.9-6.1
					c1.2-2.6,1.8-5.7,1.8-9.1c0-3.3-0.6-6.2-1.8-8.7c-1.2-2.6-2.8-4.5-4.8-6c-2.1-1.4-4.4-2.1-7.1-2.1c-2.8,0-5.2,0.7-7.3,2.2
					c-2.1,1.4-3.8,3.4-5,6c-1.2,2.6-1.8,5.5-1.8,8.8c0,3.4,0.6,6.4,1.8,9c1.2,2.6,2.8,4.6,4.9,6.1c2.1,1.4,4.4,2.2,7.1,2.2
					C1785.8,354.5,1788.2,353.7,1790.3,352.3z"/>
				<path d="M1820.3,303.6c-1.4-1.4-2.1-3.1-2.1-5.1s0.7-3.7,2.1-5.1c1.4-1.4,3.1-2.1,5.1-2.1c2,0,3.7,0.7,5.1,2.1
					c1.4,1.4,2.1,3.1,2.1,5.2s-0.7,3.7-2,5.1c-1.4,1.4-3.1,2.1-5.2,2.1C1823.4,305.7,1821.7,305,1820.3,303.6z M1819.8,312.4h11.2
					v50.1h-11.2V312.4z"/>
				<path d="M1844.8,359.6c-3.4-2.6-5.1-6.3-5.1-11.1c0.1-3.6,1.1-6.4,3.2-8.6c2-2.1,4.6-3.6,7.7-4.5c3.1-0.9,6.6-1.6,10.7-2.1
					c1.1-0.1,2.1-0.3,3.1-0.4c2.4-0.3,4.3-0.5,5.6-0.9c1.4-0.3,2.4-0.8,3.2-1.4c0.8-0.6,1.2-1.4,1.2-2.5c0-1.6-0.4-3-1.2-4.3
					c-0.8-1.3-2-2.2-3.5-2.9c-1.6-0.7-3.4-1-5.5-1c-3.3,0-6,0.8-8.2,2.5c-2.2,1.6-3.5,3.8-3.9,6.3h-11.2c0.3-3.5,1.5-6.6,3.6-9.3
					c2.1-2.7,4.8-4.9,8.3-6.3c3.4-1.5,7.3-2.2,11.5-2.2c4.5,0,8.3,0.7,11.4,2.2c3.2,1.5,5.5,3.6,7.2,6.3c1.6,2.7,2.5,5.9,2.5,9.4
					v22.7c0,0.8,0.2,1.3,0.6,1.7c0.4,0.3,1,0.5,1.8,0.5h2.6v8.7h-5.3c-2.5,0-4.6-0.5-6.1-1.5c-1.5-1-2.5-2.5-3-4.3
					c-0.2-0.5-0.3-1-0.4-1.6c-1.5,2.7-3.7,4.8-6.5,6.3c-2.8,1.5-6.3,2.2-10.5,2.2C1852.9,363.6,1848.3,362.2,1844.8,359.6z
					 M1870.6,351.7c2.5-2.1,3.7-4.7,3.7-7.9v-7.1c-0.7,1.1-1.8,2-3.4,2.6c-1.6,0.6-3.7,1.1-6.3,1.4l-2.2,0.3
					c-2.6,0.3-4.7,0.7-6.3,1.1c-1.5,0.4-2.8,1.1-3.8,2c-1,0.9-1.5,2.2-1.5,3.8c0,2.2,0.9,3.9,2.6,5.2c1.7,1.2,4.2,1.8,7.5,1.8
					C1864.9,354.9,1868.1,353.8,1870.6,351.7z"/>
				<path d="M1471.3,359.6c-3.4-2.6-5.1-6.3-5.1-11.1c0.1-3.6,1.1-6.4,3.2-8.6c2-2.1,4.6-3.6,7.7-4.5c3.1-0.9,6.6-1.6,10.7-2.1
					c1.1-0.1,2.1-0.3,3.1-0.4c2.4-0.3,4.3-0.5,5.6-0.9s2.4-0.8,3.2-1.4c0.8-0.6,1.2-1.4,1.2-2.5c0-1.6-0.4-3-1.2-4.3
					c-0.8-1.3-2-2.2-3.5-2.9c-1.6-0.7-3.4-1-5.5-1c-3.3,0-6,0.8-8.2,2.5c-2.2,1.6-3.5,3.8-3.9,6.3h-11.2c0.3-3.5,1.5-6.6,3.6-9.3
					c2.1-2.7,4.8-4.9,8.3-6.3c3.4-1.5,7.3-2.2,11.5-2.2c4.5,0,8.3,0.7,11.4,2.2c3.2,1.5,5.5,3.6,7.2,6.3c1.6,2.7,2.5,5.9,2.5,9.4
					v22.7c0,0.8,0.2,1.3,0.6,1.7c0.4,0.3,1,0.5,1.8,0.5h2.6v8.7h-5.3c-2.5,0-4.6-0.5-6.1-1.5c-1.5-1-2.5-2.5-3-4.3
					c-0.2-0.5-0.3-1-0.4-1.6c-1.5,2.7-3.7,4.8-6.5,6.3c-2.8,1.5-6.3,2.2-10.5,2.2C1479.3,363.6,1474.7,362.2,1471.3,359.6z
					 M1497.1,351.7c2.5-2.1,3.7-4.7,3.7-7.9v-7.1c-0.7,1.1-1.8,2-3.4,2.6c-1.6,0.6-3.7,1.1-6.3,1.4l-2.2,0.3
					c-2.6,0.3-4.7,0.7-6.3,1.1c-1.5,0.4-2.8,1.1-3.8,2c-1,0.9-1.5,2.2-1.5,3.8c0,2.2,0.9,3.9,2.6,5.2c1.7,1.2,4.2,1.8,7.5,1.8
					C1491.4,354.9,1494.6,353.8,1497.1,351.7z"/>
				<path d="M1932.3,359.5c-5-2.9-8.9-6.9-11.6-12.2c-2.7-5.3-4.1-11.3-4.1-18.1c0-6.6,1.3-12.5,4-17.7c2.7-5.2,6.5-9.2,11.6-12.2
					c5-2.9,10.9-4.4,17.7-4.4c8.6,0,15.7,2.4,21.3,7.1c5.6,4.7,9.1,11.3,10.6,19.8h-11.6c-1.1-5.2-3.4-9.2-7-12.2
					c-3.6-3-8-4.4-13.2-4.4c-4.4,0-8.2,1-11.5,2.9c-3.2,2-5.7,4.7-7.5,8.4c-1.8,3.6-2.6,7.9-2.6,12.7c0,5,0.9,9.3,2.6,13
					c1.7,3.7,4.2,6.5,7.5,8.5s7.1,2.9,11.5,2.9c5.3,0,9.7-1.5,13.3-4.4c3.6-2.9,5.9-7,6.9-12.3h11.6c-1.5,8.6-5,15.2-10.6,19.9
					c-5.5,4.7-12.6,7-21.3,7C1943.2,363.8,1937.4,362.4,1932.3,359.5z"/>
				<path d="M2000.6,360.4c-3.8-2.3-6.8-5.5-8.8-9.6c-2.1-4.1-3.1-8.7-3.1-13.9c0-5.4,1.1-10,3.3-13.9s5.3-6.9,9.2-9
					c3.9-2,8.3-3.1,13.2-3.1c5.2,0,9.8,1.1,13.7,3.4c3.9,2.3,6.8,5.4,8.9,9.3s3.1,8.4,3.1,13.3c0,5.6-1.1,10.4-3.3,14.5
					c-2.2,4-5.2,7.1-9.1,9.2c-3.9,2.1-8.3,3.2-13.3,3.2C2009.1,363.8,2004.4,362.7,2000.6,360.4z M2022,352.2c2.2-1.5,3.8-3.5,5-6.1
					c1.1-2.6,1.7-5.6,1.7-9c0-5-1.3-9-3.9-12c-2.6-3-6.1-4.5-10.4-4.5c-2.9,0-5.4,0.7-7.6,2c-2.2,1.4-3.8,3.3-5,5.8
					c-1.2,2.5-1.7,5.4-1.7,8.7c0,3.7,0.6,6.8,1.8,9.4c1.2,2.6,2.9,4.6,5.1,6s4.6,2.1,7.4,2.1C2017.3,354.4,2019.8,353.6,2022,352.2z
					"/>
				<path d="M2048.7,312.4h8.9l0.9,7.1c1.6-2.6,3.8-4.6,6.8-6.2c3-1.5,6.3-2.3,9.9-2.3c3.5,0,6.6,0.8,9.3,2.4c2.6,1.6,4.6,3.9,6,7
					c1.6-2.8,3.9-5,6.9-6.8c3.1-1.7,6.5-2.6,10.4-2.6c3.4,0,6.4,0.8,9,2.3c2.6,1.5,4.6,3.7,6,6.4c1.4,2.7,2.1,5.9,2.1,9.6v33.3
					h-11.2v-32.8c0-2.8-0.8-5-2.4-6.7c-1.6-1.7-3.7-2.5-6.4-2.5c-2.5,0-4.7,0.5-6.6,1.5c-1.9,1-3.4,2.4-4.4,4.2
					c-1,1.8-1.6,3.8-1.6,6v30.4h-11.2v-32.8c0-2.8-0.8-5-2.4-6.7s-3.7-2.5-6.4-2.5c-2.5,0-4.7,0.5-6.6,1.5c-1.9,1-3.4,2.4-4.4,4.2
					c-1,1.8-1.6,3.8-1.6,6v30.4h-11.2V312.4z"/>
				<path d="M2135.7,312.4h9l1,8.2c1.7-3,4.1-5.3,7.2-7c3.1-1.7,6.7-2.6,10.6-2.6c4.3,0,8.2,1.1,11.6,3.3c3.5,2.2,6.2,5.3,8.1,9.3
					c1.9,4,2.9,8.6,2.9,13.7c0,5.2-1,9.8-2.9,13.9c-1.9,4.1-4.6,7.2-8.1,9.5c-3.5,2.2-7.4,3.4-11.7,3.4c-3.6,0-6.8-0.7-9.7-2.2
					c-2.9-1.4-5.2-3.5-6.9-6v25.8h-11.3V312.4z M2168.2,352.3c2.1-1.4,3.7-3.5,4.9-6.1c1.2-2.6,1.8-5.6,1.8-9c0-3.3-0.6-6.2-1.8-8.7
					c-1.2-2.6-2.8-4.5-4.9-6c-2.1-1.4-4.5-2.1-7.2-2.1c-2.8,0-5.2,0.7-7.3,2.1c-2.1,1.4-3.7,3.4-4.9,5.9c-1.2,2.5-1.8,5.3-1.8,8.6
					c0,3.5,0.6,6.5,1.8,9.1c1.2,2.6,2.9,4.7,5,6.2c2.1,1.5,4.6,2.3,7.3,2.3C2163.7,354.5,2166.1,353.7,2168.2,352.3z"/>
				<path d="M2197.5,359.6c-3.4-2.6-5.1-6.3-5.1-11.1c0.1-3.6,1.1-6.4,3.2-8.6c2-2.1,4.6-3.6,7.7-4.5c3.1-0.9,6.6-1.6,10.7-2.1
					c1.1-0.1,2.1-0.3,3.1-0.4c2.4-0.3,4.3-0.5,5.6-0.9s2.4-0.8,3.2-1.4c0.8-0.6,1.2-1.4,1.2-2.5c0-1.6-0.4-3-1.2-4.3
					c-0.8-1.3-2-2.2-3.5-2.9c-1.6-0.7-3.4-1-5.5-1c-3.3,0-6,0.8-8.2,2.5c-2.2,1.6-3.5,3.8-3.9,6.3h-11.2c0.3-3.5,1.5-6.6,3.6-9.3
					c2.1-2.7,4.8-4.9,8.3-6.3c3.4-1.5,7.3-2.2,11.5-2.2c4.5,0,8.3,0.7,11.4,2.2c3.2,1.5,5.5,3.6,7.2,6.3c1.6,2.7,2.5,5.9,2.5,9.4
					v22.7c0,0.8,0.2,1.3,0.6,1.7c0.4,0.3,1,0.5,1.8,0.5h2.6v8.7h-5.3c-2.5,0-4.6-0.5-6.1-1.5c-1.5-1-2.5-2.5-3-4.3
					c-0.2-0.5-0.3-1-0.4-1.6c-1.5,2.7-3.7,4.8-6.5,6.3c-2.8,1.5-6.3,2.2-10.5,2.2C2205.6,363.6,2201,362.2,2197.5,359.6z
					 M2223.4,351.7c2.5-2.1,3.7-4.7,3.7-7.9v-7.1c-0.7,1.1-1.8,2-3.4,2.6c-1.6,0.6-3.7,1.1-6.3,1.4l-2.2,0.3
					c-2.6,0.3-4.7,0.7-6.3,1.1c-1.5,0.4-2.8,1.1-3.8,2c-1,0.9-1.5,2.2-1.5,3.8c0,2.2,0.9,3.9,2.6,5.2c1.7,1.2,4.2,1.8,7.5,1.8
					C2217.7,354.9,2220.9,353.8,2223.4,351.7z"/>
				<path d="M2250.5,312.4h8.9l1,7.4c1.6-2.7,3.9-4.9,6.8-6.4c3-1.6,6.3-2.4,10-2.4c5.4,0,9.7,1.7,13,5c3.2,3.3,4.8,7.8,4.8,13.3
					v33.2h-11.3v-32.7c0-2.8-0.9-5-2.6-6.7c-1.8-1.7-4.2-2.5-7.3-2.5c-2.3,0-4.4,0.5-6.3,1.5c-1.9,1-3.3,2.4-4.3,4.2
					c-1,1.8-1.6,3.7-1.6,6v30.3h-11.2V312.4z"/>
				<path d="M2303.3,372h9.2c2,0,3.6-0.3,4.8-1c1.2-0.7,2-1.7,2.6-3.1l1.9-5.3h-2l-19.9-50.1h12l14.4,38l14.1-38h11.6l-21.8,58.7
					c-0.9,2.3-2.1,4.2-3.6,5.7c-1.5,1.5-3.4,2.6-5.8,3.4c-2.3,0.8-5.1,1.2-8.3,1.2h-9.2V372z"/>
			</g>
		</g>
		<g>
			<path d="M0,11.1h96.3c69.1,0,100.4,47.9,100.4,89.5c0,41.5-31.3,89.5-100.4,89.5H66.1v72.1H0V11.1z M89.8,133.4
				c26.4,0,38.9-15.9,38.9-32.8c0-17-12.5-32.8-38.9-32.8H66.1v65.7H89.8z"/>
			<path d="M230.9,11.1h95.9c69.1,0,99.7,47.9,99.7,89.5c0,25.7-11.7,53.2-36.2,71l44.9,90.6h-74.4L326,190H297v72.1h-66.1V11.1z
				 M318.9,133.4c26.8,0,39.6-15.9,39.6-32.8c0-17-12.8-32.8-39.6-32.8H297v65.7H318.9z"/>
			<path d="M471.6,11.1h165.7v54.7h-99.7v42.7H623v54.7h-85.3v44.2h103.8v54.7H471.6V11.1z"/>
			<path d="M673.8,176.8h66.8c1.1,23.4,22.3,33.2,42.3,33.2c18.1,0,35.5-7.9,35.5-21.1c0-36.6-140.8-7.6-140.8-104.2
				c0-47.6,40.8-78.1,97-78.1c69.8,0,104.6,41.9,107.2,91.7H815c-1.1-21.9-17-35.1-38.1-35.1c-18.1,0-31.3,6-31.3,20.8
				c0,44.2,140.8,6,140.8,104.9c0,47.2-41.9,77.8-102.3,77.8C718.4,266.7,676.9,235,673.8,176.8z"/>
			<path d="M968.9,69.6h-70.6V11.1H1106v58.5h-71v192.5h-66.1V69.6z"/>
			<path d="M1171.4,11.1h82.7l86.1,251h-69.8l-14-44.9h-89.1l-14,44.9h-68.3L1171.4,11.1z M1239,162.5l-27.2-86.1l-27.2,86.1H1239z"
				/>
			<path d="M1350.5,176.8h66.8c1.1,23.4,22.3,33.2,42.3,33.2c18.1,0,35.5-7.9,35.5-21.1c0-36.6-140.8-7.6-140.8-104.2
				c0-47.6,40.8-78.1,97-78.1c69.8,0,104.6,41.9,107.2,91.7h-66.8c-1.1-21.9-17-35.1-38.1-35.1c-18.1,0-31.3,6-31.3,20.8
				c0,44.2,140.8,6,140.8,104.9c0,47.2-41.9,77.8-102.3,77.8C1395.1,266.7,1353.5,235,1350.5,176.8z"/>
			<path d="M1603.3,11.1h66.1v96.3h89.5V11.1h66.1v251h-66.1v-100h-89.5v100h-66.1V11.1z"/>
			<path d="M1860.8,136.1c0-77,51.3-129.5,126.5-129.5c75.5,0,126.8,52.5,126.8,129.5c0,77.8-51.3,130.6-126.8,130.6
				C1912.2,266.7,1860.8,213.8,1860.8,136.1z M1987.3,210c35.1,0,58.9-30.2,58.9-74c0-43.4-23.8-72.9-58.9-72.9
				c-34.7,0-58.5,29.4-58.5,72.9C1928.8,179.8,1952.6,210,1987.3,210z"/>
			<path d="M2150,11.1h96.3c69.1,0,100.4,47.9,100.4,89.5c0,41.5-31.3,89.5-100.4,89.5h-30.2v72.1H2150V11.1z M2239.9,133.4
				c26.4,0,38.9-15.9,38.9-32.8c0-17-12.5-32.8-38.9-32.8h-23.8v65.7H2239.9z"/>
		</g>
	</g>
</g>
</svg>
