<?xml version="1.0" encoding="utf-8"?>
<!-- Generator: Adobe Illustrator 26.0.2, SVG Export Plug-In . SVG Version: 6.00 Build 0)  -->
<svg version="1.1" id="Calque_1" xmlns="http://www.w3.org/2000/svg" xmlns:xlink="http://www.w3.org/1999/xlink" x="0px" y="0px"
	 viewBox="0 0 173 19" style="enable-background:new 0 0 173 19;" xml:space="preserve">
<path d="M4.9,13.1h2.9c1.4,0,2.6-0.3,3.7-0.8S13.4,11,14,10s0.9-2.1,0.9-3.4S14.6,4.2,14,3.2c-0.6-1-1.4-1.7-2.5-2.3
	c-1.1-0.5-2.3-0.8-3.7-0.8H0v18.7h4.9V13.1z M4.9,4.2h2.5c0.8,0,1.4,0.2,1.9,0.7c0.5,0.4,0.7,1,0.7,1.8S9.7,8,9.3,8.4
	S8.2,9.1,7.4,9.1l0,0H4.9V4.2z"/>
<path d="M31.4,9.7c0.5-0.9,0.8-1.9,0.8-3c0-1.3-0.3-2.4-0.9-3.4S29.8,1.6,28.8,1l0,0c-1.1-0.5-2.3-0.8-3.8-0.8h-8v18.7h5v-5.8h2.6
	l2.8,5.8h5.4l-3.4-7C30.2,11.3,30.9,10.6,31.4,9.7z M26.4,8.4c-0.5,0.4-1.1,0.7-1.9,0.7l0,0H22V4.2h2.6c0.8,0,1.4,0.2,1.9,0.7
	c0.5,0.4,0.7,1,0.7,1.8S26.9,8,26.4,8.4z"/>
<polygon points="40,11.4 46.4,11.4 46.4,7.5 40,7.5 40,4.3 48,4.3 48,0.2 35.1,0.2 35.1,18.8 48.3,18.8 48.3,14.7 40,14.7 "/>
<path d="M64.6,16c0.7-0.9,1-2,1-3.1c0-1.2-0.3-2.1-0.8-2.9c-0.5-0.7-1.2-1.3-2-1.6C62,8,61,7.7,59.7,7.5C58.4,7.2,57.5,7,57,6.9
	c-0.6-0.2-1-0.3-1.2-0.5c-0.3-0.2-0.4-0.5-0.4-0.9c0-0.6,0.2-1,0.7-1.3c0.4-0.3,1-0.4,1.7-0.4c0.8,0,1.4,0.2,1.9,0.6
	s0.7,0.9,0.8,1.6h4.8c0-1.1-0.3-2.1-1-3.1c-0.6-0.9-1.5-1.6-2.7-2.1S59.1,0,57.7,0c-1.4,0-2.6,0.3-3.7,0.8c-1.1,0.5-2,1.2-2.6,2.1
	s-0.9,1.9-0.9,3c0,1.2,0.3,2.2,0.8,3c0.5,0.7,1.2,1.3,2,1.7s1.9,0.7,3.1,0.9c1.3,0.3,2.2,0.5,2.8,0.6c0.6,0.2,1,0.3,1.2,0.5
	c0.3,0.2,0.4,0.5,0.4,0.9c0,0.6-0.2,1-0.7,1.3s-1.1,0.5-1.9,0.5c-1,0-1.8-0.2-2.3-0.7l0,0c-0.6-0.5-0.9-1-0.9-1.8l-5-0.1
	c0,1.2,0.3,2.3,1,3.2c0.7,1,1.6,1.7,2.9,2.3c1.2,0.6,2.6,0.8,4.1,0.8c1.4,0,2.7-0.3,3.9-0.8C63.1,17.7,64,16.9,64.6,16z"/>
<polygon points="81.7,0.2 66.6,0.2 66.6,4.3 71.7,4.3 71.7,18.8 76.6,18.8 76.6,4.3 81.7,4.3 "/>
<path d="M86.7,0.2L80,18.9h5.1l1.1-3.5h6.5l1.2,3.5h5.3L92.7,0.2H86.7z M87.6,11.4l2-6.1l2,6.1H87.6z"/>
<path d="M114.4,16c0.7-0.9,1-2,1-3.1c0-1.2-0.3-2.1-0.8-2.9c-0.5-0.7-1.2-1.3-2-1.6s-1.9-0.7-3.2-0.9c-1.2-0.2-2.1-0.4-2.7-0.6
	s-1-0.3-1.2-0.5c-0.3-0.2-0.4-0.5-0.4-0.9c0-0.6,0.2-1,0.7-1.3c0.4-0.3,1-0.4,1.7-0.4c0.8,0,1.4,0.2,1.9,0.6s0.7,0.9,0.8,1.6h4.8
	c0-1.1-0.3-2.1-1-3.1c-0.6-0.9-1.5-1.6-2.7-2.1c-1.1-0.5-2.4-0.8-3.8-0.8s-2.6,0.3-3.7,0.8s-2,1.2-2.6,2.1s-0.9,1.9-0.9,3
	c0,1.2,0.3,2.2,0.8,3c0.5,0.7,1.2,1.3,2,1.7s1.9,0.7,3.1,0.9c1.3,0.3,2.2,0.5,2.8,0.6c0.6,0.2,1,0.3,1.2,0.5
	c0.3,0.2,0.4,0.5,0.4,0.9c0,0.6-0.2,1-0.7,1.3s-1.1,0.5-1.9,0.5c-1,0-1.8-0.2-2.3-0.7l0,0c-0.6-0.5-0.9-1-0.9-1.8l-4.8-0.1
	c0,1.2,0.3,2.3,1,3.2c0.7,1,1.6,1.7,2.9,2.3s2.6,0.8,4.1,0.8s2.7-0.3,3.9-0.8C112.8,17.7,113.7,16.9,114.4,16z"/>
<polygon points="129.1,7.3 122.9,7.3 122.9,0.2 118,0.2 118,18.8 122.9,18.8 122.9,11.5 129.1,11.5 129.1,18.8 134,18.8 134,0.2 
	129.1,0.2 "/>
<path d="M154.3,14.4c0.8-1.4,1.2-3.1,1.2-4.9s-0.4-3.4-1.2-4.9c-0.8-1.4-1.9-2.6-3.3-3.4c-1.5-0.8-3.1-1.2-5-1.2s-3.5,0.4-4.9,1.2
	s-2.5,2-3.3,3.4s-1.2,3.1-1.2,4.9s0.4,3.4,1.2,4.9c0.8,1.4,1.9,2.6,3.3,3.4c1.4,0.8,3.1,1.2,4.9,1.2c1.9,0,3.5-0.4,4.9-1.2
	C152.4,16.9,153.5,15.8,154.3,14.4z M149.3,13.4c-0.8,1-1.9,1.5-3.2,1.5s-2.4-0.5-3.2-1.5s-1.2-2.3-1.2-3.9s0.4-2.9,1.2-3.9
	s1.9-1.5,3.2-1.5s2.4,0.5,3.2,1.5s1.2,2.3,1.2,3.9S150.1,12.4,149.3,13.4z"/>
<path d="M169.6,1c-1.1-0.5-2.3-0.8-3.7-0.8H158v18.7h4.9v-5.8h2.9c1.4,0,2.6-0.3,3.7-0.8c1.1-0.5,1.9-1.3,2.5-2.3s0.9-2.1,0.9-3.4
	s-0.3-2.4-0.9-3.4S170.7,1.5,169.6,1z M167.3,8.4c-0.5,0.4-1.1,0.7-1.9,0.7l0,0H163V4.2h2.5c0.8,0,1.4,0.2,1.9,0.7
	c0.5,0.4,0.7,1,0.7,1.8S167.8,8,167.3,8.4z"/>
</svg>
