<?xml version="1.0" encoding="UTF-8"?><svg id="Calque_1" xmlns="http://www.w3.org/2000/svg" viewBox="0 0 688.22 181.94"><path d="M60.65,60.65h23.26c16.69,0,24.26,11.58,24.26,21.61s-7.57,21.61-24.26,21.61h-7.3v17.42h-15.96V60.65Zm21.7,29.55c6.38,0,9.39-3.83,9.39-7.93s-3.01-7.93-9.39-7.93h-5.75v15.87h5.75Z"/><path d="M116.43,60.65h23.16c16.69,0,24.08,11.58,24.08,21.61,0,6.2-2.83,12.86-8.75,17.14l10.85,21.89h-17.97l-8.39-17.42h-7.02v17.42h-15.96V60.65Zm21.25,29.55c6.47,0,9.58-3.83,9.58-7.93s-3.1-7.93-9.58-7.93h-5.29v15.87h5.29Z"/><path d="M174.58,60.65h40.04v13.22h-24.08v10.3h20.61v13.22h-20.61v10.67h25.08v13.22h-41.04V60.65Z"/><path d="M223.44,100.68h16.14c.27,5.65,5.38,8.03,10.21,8.03,4.38,0,8.57-1.92,8.57-5.11,0-8.85-34.02-1.82-34.02-25.17,0-11.49,9.85-18.88,23.44-18.88,16.87,0,25.26,10.12,25.9,22.16h-16.14c-.27-5.29-4.1-8.48-9.21-8.48-4.38,0-7.57,1.46-7.57,5.02,0,10.67,34.02,1.46,34.02,25.35,0,11.4-10.12,18.79-24.71,18.79-15.87,0-25.9-7.66-26.63-21.7Z"/><path d="M294.73,74.78h-17.05v-14.14h50.16v14.14h-17.15v46.51h-15.96v-46.51Z"/><path d="M343.64,60.65h19.97l20.79,60.65h-16.87l-3.38-10.85h-21.52l-3.37,10.85h-16.51l20.88-60.65Zm16.33,36.57l-6.57-20.79-6.57,20.79h13.13Z"/><path d="M386.92,100.68h16.14c.27,5.65,5.38,8.03,10.21,8.03,4.38,0,8.57-1.92,8.57-5.11,0-8.85-34.02-1.82-34.02-25.17,0-11.49,9.85-18.88,23.44-18.88,16.87,0,25.26,10.12,25.9,22.16h-16.14c-.27-5.29-4.1-8.48-9.21-8.48-4.38,0-7.57,1.46-7.57,5.02,0,10.67,34.02,1.46,34.02,25.35,0,11.4-10.12,18.79-24.71,18.79-15.87,0-25.9-7.66-26.63-21.7Z"/><path d="M447.99,60.65h15.96v23.26h21.61v-23.26h15.96v60.65h-15.96v-24.17h-21.61v24.17h-15.96V60.65Z"/><path d="M510.2,90.83c0-18.6,12.4-31.28,30.55-31.28s30.64,12.68,30.64,31.28-12.4,31.55-30.64,31.55-30.55-12.77-30.55-31.55Zm30.55,17.87c8.48,0,14.23-7.3,14.23-17.87s-5.75-17.6-14.23-17.6-14.14,7.11-14.14,17.6,5.75,17.87,14.14,17.87Z"/><path d="M580.06,60.65h23.25c16.69,0,24.26,11.58,24.26,21.61s-7.57,21.61-24.26,21.61h-7.3v17.42h-15.96V60.65Zm21.71,29.55c6.38,0,9.39-3.83,9.39-7.93s-3.01-7.93-9.39-7.93h-5.75v15.87h5.75Z"/></svg>