<?xml version="1.0" encoding="UTF-8"?><svg id="Calque_1" xmlns="http://www.w3.org/2000/svg" viewBox="0 0 1920 977.75"><defs><style>.cls-1{fill:#000046;}.cls-2{fill:#774cfe;}</style></defs><rect class="cls-2" x="1243.94" y="369.84" width="74.43" height="275.38"/><path class="cls-2" d="M1281.7,344.5c26.05,0,47.16-19.35,47.16-43.22s-21.11-43.22-47.16-43.22-47.16,19.35-47.16,43.22,21.11,43.22,47.16,43.22Z"/><path class="cls-1" d="M1128.23,489.01c5.92-62.76,73.85-44.87,73.85-44.87v-76.55c-61.88-5.28-78.6,33.72-78.6,33.72-4.98-8.51-6.94-31.48-6.94-31.48h-64.54v275.38h76.22v-156.2h.01Z"/><path class="cls-1" d="M377.34,362.24c-146.94,0-146.94,144.67-146.94,144.67,0,0-3.31,143.55,150.35,146.28,0,0,88.47,5.7,134.1-67.78l-60.46-35.55s-18.46,39.13-67.89,39.13c-39.82,0-69.85-17.76-79.72-55.13h217.55c0-34.38,0-171.63-146.98-171.63h0ZM306.23,478.75s7.72-51.04,71.11-51.04,71.11,51.04,71.11,51.04h-142.23Z"/><path class="cls-1" d="M728.66,645.21h75.73v-194.91c0-51.91-43.34-88.07-97.15-88.07-33.13,0-57.05,19.84-70.53,35.09l-4.23-27.98h-64.76v275.87h74.43v-154.9c0-18.58.81-60.49,43.67-60.49s42.86,37.63,42.86,52.39v163h-.01Z"/><path class="cls-1" d="M878.69,518.34v49.54c0,17.17,9.26,82.57,79.94,82.57,0,0,37.87,0,43.64-2.62v-70.94s-28.38,3.7-36.52-.25c-8.15-3.95-12.62-14.66-12.62-37.22v-102.11h49.14v-65.61h-51.7v-56.06h-61.59v26.06c0,23.3-23.99,29.99-34.37,29.99h-15.72v65.61h39.82v81.04Z"/><path class="cls-2" d="M1456.81,468.47c-39.36,0-91.55,32.39-91.55,91.15s48.23,93.57,96.71,93.57,70.57-31.5,70.57-31.5l5.33,23.52h66.59v-185.13c0-60.84-54.16-97.86-118.99-97.86s-111.88,29.05-111.88,29.05l27.64,60.55s43.07-23.7,78.14-23.7,49.35,23.7,49.35,36.51v27.38c-9.41-10.26-32.5-23.55-71.89-23.55h-.01ZM1528.9,558.48c0,23.44-22.94,36.3-44.04,36.3s-44.86-9.07-44.86-37.23,27.56-35.39,44.86-35.39c25.37,0,44.04,12.87,44.04,36.3h0Z"/><path class="cls-1" d="M179.34,369.34H10.22v65.1h99.76L5.1,594.8v.08c-3.22,5.06-5.1,11.09-5.1,17.51s1.87,12.47,5.1,17.53c5.78,9.19,16.04,15.28,27.69,15.28h171.88v-65.61h-106.99s107.22-162.84,107.36-163.04c3.08-4.77,4.89-10.48,4.89-16.62,0-7.54-2.73-14.45-7.29-19.8-5.62-6.59-13.96-10.8-23.33-10.8h.02Z"/><path class="cls-1" d="M148.49,735.16c0-24.42,15.48-33.86,32.85-33.86s31.08,8.81,31.08,33.61c0,2.39-.12,3.65-.37,5.03h-46.06c1,10.96,6.67,15.36,15.73,15.36,8.44,0,12.08-3.4,13.59-8.69h16.24c-3.28,14.98-14.86,22.66-30.09,22.66-16.61,0-32.97-9.2-32.97-34.1h.01ZM195.05,729.12c-.25-7.56-4.16-13.84-14.22-13.84-8.56,0-13.6,4.79-14.85,13.84h29.07Z"/><path class="cls-1" d="M220.88,726.34h38.77v13.84h-38.77v-13.84Z"/><path class="cls-1" d="M268.11,735.41c0-24.41,16.85-34.1,32.97-34.1,11.45,0,27.57,4.53,29.95,26.56h-16.61c-1.64-7.92-6.41-11.2-13.46-11.2-10.44,0-15.49,7.93-15.49,18.76s5.04,18.5,15.49,18.5c7.29,0,11.83-3.65,13.46-11.45h16.61c-2.01,22.02-18.37,26.81-29.95,26.81-16.1,0-32.97-9.44-32.97-33.86h0Z"/><path class="cls-1" d="M337.62,735.29c0-23.78,16.36-33.98,32.85-33.98s32.85,10.2,32.85,33.98-16.36,33.98-32.85,33.98-32.85-10.2-32.85-33.98ZM386.06,735.29c0-12.96-6.8-18.76-15.61-18.76s-15.61,5.79-15.61,18.76,6.8,18.76,15.61,18.76,15.61-5.79,15.61-18.76Z"/><path class="cls-1" d="M484.52,716.53c-6.55,0-11.84,4.41-11.84,14.34v37.13h-18.37v-37.13c0-9.94-4.15-14.34-10.82-14.34s-11.83,4.41-11.83,14.34v37.13h-18.37v-65.44h18.37v13.71h.75c1.01-6.16,7.69-14.97,19.13-14.97,9.05,0,16.74,4.91,19.76,14.97,1.27-6.04,8.44-14.97,20.77-14.97s21.64,8.17,21.64,25.17v41.53h-18.37v-37.13c0-9.94-4.15-14.34-10.82-14.34h.01Z"/><path class="cls-1" d="M598.11,716.53c-6.55,0-11.84,4.41-11.84,14.34v37.13h-18.37v-37.13c0-9.94-4.15-14.34-10.82-14.34s-11.83,4.41-11.83,14.34v37.13h-18.37v-65.44h18.37v13.71h.75c1.01-6.16,7.69-14.97,19.13-14.97,9.05,0,16.74,4.91,19.76,14.97,1.27-6.04,8.44-14.97,20.77-14.97s21.64,8.17,21.64,25.17v41.53h-18.37v-37.13c0-9.94-4.15-14.34-10.82-14.34h.01Z"/><path class="cls-1" d="M637.31,735.16c0-24.42,15.48-33.86,32.85-33.86s31.08,8.81,31.08,33.61c0,2.39-.12,3.65-.37,5.03h-46.06c1,10.96,6.67,15.36,15.73,15.36,8.44,0,12.08-3.4,13.59-8.69h16.24c-3.27,14.98-14.85,22.66-30.08,22.66-16.61,0-32.97-9.2-32.97-34.1h0ZM683.88,729.12c-.25-7.56-4.16-13.84-14.22-13.84-8.56,0-13.59,4.79-14.85,13.84h29.07Z"/><path class="cls-1" d="M711.23,702.56h18.37v15.85h.51c2.27-9.56,8.44-16.61,18.88-16.61,1.51,0,3.15.12,5.03.63v15.49c-2.01-.25-3.52-.37-5.16-.37-9.81,0-19.25,5.67-19.25,21.52v28.95h-18.37v-65.44h0Z"/><path class="cls-1" d="M757.7,735.41c0-24.41,16.85-34.1,32.97-34.1,11.45,0,27.57,4.53,29.95,26.56h-16.61c-1.64-7.92-6.41-11.2-13.46-11.2-10.44,0-15.49,7.93-15.49,18.76s5.04,18.5,15.49,18.5c7.29,0,11.83-3.65,13.46-11.45h16.61c-2.01,22.02-18.37,26.81-29.95,26.81-16.1,0-32.97-9.44-32.97-33.86h0Z"/><path class="cls-1" d="M827.2,735.16c0-24.42,15.48-33.86,32.85-33.86s31.08,8.81,31.08,33.61c0,2.39-.12,3.65-.37,5.03h-46.06c1,10.96,6.67,15.36,15.73,15.36,8.44,0,12.08-3.4,13.59-8.69h16.24c-3.27,14.98-14.85,22.66-30.08,22.66-16.61,0-32.97-9.2-32.97-34.1h0ZM873.77,729.12c-.25-7.56-4.16-13.84-14.22-13.84-8.56,0-13.59,4.79-14.85,13.84h29.07Z"/><rect class="cls-1" x="930.07" y="702.56" width="18.37" height="65.44"/><path class="cls-1" d="M993.64,716.53c-7.68,0-13.71,4.41-13.71,14.34v37.13h-18.37v-65.44h18.37v13.71h.75c1.13-6.16,7.43-14.97,20.89-14.97,12.71,0,22.53,8.17,22.53,25.17v41.53h-18.37v-37.13c0-9.94-4.4-14.34-12.08-14.34h-.01Z"/><path class="cls-1" d="M1042.65,748.37v-31.58h-11.08v-14.22h11.08v-16.86h18.37v16.86h12.96v14.22h-12.96v28.94c0,5.03,1.51,8.44,8.31,8.44,1.39,0,2.52,0,5.16-.24v13.71c-2.91.76-6.42,1.27-10.08,1.27-13.09,0-21.77-5.92-21.77-20.52h.01Z"/><path class="cls-1" d="M1080.05,735.16c0-24.42,15.48-33.86,32.85-33.86s31.08,8.81,31.08,33.61c0,2.39-.12,3.65-.37,5.03h-46.06c1,10.96,6.67,15.36,15.73,15.36,8.44,0,12.08-3.4,13.59-8.69h16.24c-3.27,14.98-14.85,22.66-30.08,22.66-16.61,0-32.97-9.2-32.97-34.1h0ZM1126.61,729.12c-.25-7.56-4.16-13.84-14.22-13.84-8.56,0-13.59,4.79-14.85,13.84h29.07Z"/><path class="cls-1" d="M1153.96,679.91h18.37v88.09h-18.37v-88.09Z"/><path class="cls-1" d="M1185.45,679.91h18.37v88.09h-18.37v-88.09Z"/><path class="cls-1" d="M1226.1,674.62c5.29,0,10.08,4.41,10.08,10.2s-4.79,10.08-10.08,10.08-10.07-4.41-10.07-10.08,4.77-10.2,10.07-10.2"/><path class="cls-1" d="M939.26,674.62c5.29,0,10.08,4.41,10.08,10.2s-4.79,10.08-10.08,10.08-10.07-4.41-10.07-10.08,4.77-10.2,10.07-10.2"/><rect class="cls-1" x="1216.92" y="702.56" width="18.37" height="65.44"/><path class="cls-1" d="M1246.64,771.78h16.24c.37,6.3,7.68,8.31,13.59,8.31,8.69,0,15.73-4.28,15.73-14.47v-8.18h-.24c-3.15,4.91-10.08,8.93-19.01,8.93-13.21,0-27.68-8.68-27.68-32.59s14.6-32.46,27.68-32.46c8.93,0,15.86,4.03,19.01,8.93h.24v-7.68h18.38v63.06c0,24.29-20.4,28.69-33.61,28.69-11.45,0-30.2-3.28-30.32-22.53h-.01ZM1293.08,733.77c0-11.7-7.04-17.24-15.09-17.24s-15.36,5.53-15.36,17.24,7.05,17.25,15.36,17.25,15.09-5.41,15.09-17.25Z"/><path class="cls-1" d="M1320.56,735.16c0-24.42,15.48-33.86,32.85-33.86s31.08,8.81,31.08,33.61c0,2.39-.12,3.65-.37,5.03h-46.06c1,10.96,6.67,15.36,15.73,15.36,8.44,0,12.08-3.4,13.59-8.69h16.24c-3.27,14.98-14.85,22.66-30.08,22.66-16.61,0-32.97-9.2-32.97-34.1h0ZM1367.12,729.12c-.25-7.56-4.16-13.84-14.22-13.84-8.56,0-13.59,4.79-14.85,13.84h29.07Z"/><path class="cls-1" d="M1426.56,716.53c-7.68,0-13.71,4.41-13.71,14.34v37.13h-18.37v-65.44h18.37v13.71h.75c1.13-6.16,7.43-14.97,20.89-14.97,12.71,0,22.53,8.17,22.53,25.17v41.53h-18.37v-37.13c0-9.94-4.4-14.34-12.08-14.34h-.01Z"/><path class="cls-1" d="M1467,735.41c0-24.41,16.85-34.1,32.97-34.1,11.45,0,27.57,4.53,29.95,26.56h-16.61c-1.64-7.92-6.41-11.2-13.46-11.2-10.44,0-15.49,7.93-15.49,18.76s5.04,18.5,15.49,18.5c7.29,0,11.83-3.65,13.46-11.45h16.61c-2.01,22.02-18.37,26.81-29.95,26.81-16.1,0-32.97-9.44-32.97-33.86h0Z"/><path class="cls-1" d="M1536.51,735.16c0-24.42,15.48-33.86,32.85-33.86s31.08,8.81,31.08,33.61c0,2.39-.12,3.65-.37,5.03h-46.06c1,10.96,6.67,15.36,15.73,15.36,8.44,0,12.08-3.4,13.59-8.69h16.24c-3.27,14.98-14.85,22.66-30.08,22.66-16.61,0-32.97-9.2-32.97-34.1h0ZM1583.08,729.12c-.25-7.56-4.16-13.84-14.22-13.84-8.56,0-13.59,4.79-14.85,13.84h29.07Z"/><circle class="cls-2" cx="1656.37" cy="859.39" r="21.32"/><circle class="cls-2" cx="1755.93" cy="522.16" r="22.34"/><circle class="cls-2" cx="1650.59" cy="769.28" r="23.2"/><circle class="cls-2" cx="1547.55" cy="816.75" r="21.32"/><circle class="cls-2" cx="1740.92" cy="816.75" r="17.08"/><circle class="cls-2" cx="1829.57" cy="720.68" r="26.36"/><circle class="cls-2" cx="1909.28" cy="449.75" r="10.72"/><circle class="cls-2" cx="1892.98" cy="310.25" r="10.72"/><circle class="cls-2" cx="1722.39" cy="715.63" r="21.32"/><circle class="cls-2" cx="1670.65" cy="616.1" r="21.32"/><circle class="cls-2" cx="1755.93" cy="627.25" r="23.76"/><circle class="cls-2" cx="1672.13" cy="493.5" r="21.54"/><circle class="cls-2" cx="1806.76" cy="429.64" r="37.03"/><circle class="cls-2" cx="1682.18" cy="412.72" r="32.85"/><circle class="cls-2" cx="1579.6" cy="334.24" r="23.99"/><circle class="cls-2" cx="1466.74" cy="300.07" r="27.01"/><circle class="cls-2" cx="1663.25" cy="300.07" r="28.43"/><circle class="cls-2" cx="1480.23" cy="129.51" r="21.32"/><circle class="cls-2" cx="1715.03" cy="212.19" r="28.43"/><circle class="cls-2" cx="1555.61" cy="241.17" r="28.98"/><circle class="cls-2" cx="1838.98" cy="587.5" r="26.52"/><circle class="cls-2" cx="1848.07" cy="366.85" r="20.85"/><circle class="cls-2" cx="1850.42" cy="499.05" r="18.5"/><circle class="cls-2" cx="1748.81" cy="351.36" r="22.53"/><circle class="cls-2" cx="1775.7" cy="255.11" r="23.37"/><circle class="cls-2" cx="1649.33" cy="131.75" r="22.8"/><circle class="cls-2" cx="1458.91" cy="216.12" r="30.5"/><circle class="cls-2" cx="1382.87" cy="188.45" r="30.5"/><circle class="cls-2" cx="1554.01" cy="66.48" r="21.32"/><circle class="cls-2" cx="1603.59" cy="36.26" r="18.1"/><circle class="cls-2" cx="1591.98" cy="166.59" r="21.86"/><circle class="cls-2" cx="1784.89" cy="149.64" r="21.86"/><circle class="cls-2" cx="1377.33" cy="273.07" r="22.7"/><circle class="cls-2" cx="1177.52" cy="240.62" r="23.56"/><circle class="cls-2" cx="1196.14" cy="106.31" r="12.9"/><circle class="cls-2" cx="1433.96" cy="12.9" r="12.9"/><circle class="cls-2" cx="1394.49" cy="111.45" r="16.15"/><circle class="cls-2" cx="1260.86" cy="171.5" r="26.53"/><circle class="cls-2" cx="1454.59" cy="826.11" r="28.55"/><circle class="cls-2" cx="1529.6" cy="884.04" r="27.16"/><circle class="cls-2" cx="1726.84" cy="892.51" r="13.87"/><circle class="cls-2" cx="1526.23" cy="961.5" r="16.26"/><circle class="cls-2" cx="1377.33" cy="906.53" r="32.56"/><circle class="cls-2" cx="1275.75" cy="842.06" r="31.9"/><circle class="cls-2" cx="1173.32" cy="835.99" r="25.83"/><circle class="cls-2" cx="1226.88" cy="929.38" r="15.86"/><circle class="cls-2" cx="1356.95" cy="816.75" r="21.32"/></svg>